<svg version="1.1" id="Layer_1" xmlns="http://www.w3.org/2000/svg" xmlns:xlink="http://www.w3.org/1999/xlink" x="0px" y="0px"
	 width="100%" viewBox="0 0 400 400" enable-background="new 0 0 400 400" xml:space="preserve">
<path fill="#020202" opacity="1.000000" stroke="none" 
	d="
M179.000000,0.999998 
	C193.354233,1.000000 207.708450,1.000000 222.555359,1.405953 
	C224.154175,2.110109 225.243103,2.542934 226.368958,2.687057 
	C266.794403,7.861952 302.455963,23.825520 332.809357,50.924938 
	C370.602997,84.667000 393.668121,126.384003 399.074463,177.259232 
	C399.282684,179.218903 400.338898,181.088455 401.000000,183.000000 
	C401.000000,192.354233 401.000000,201.708450 400.704987,211.681244 
	C400.606628,213.199875 400.803314,214.099930 401.000000,215.000000 
	C401.000000,217.370560 401.000000,219.741104 400.593445,222.577072 
	C399.846771,224.480072 399.375244,225.900604 399.185913,227.357803 
	C395.308563,257.200684 385.307739,284.889679 368.644897,309.877930 
	C334.294617,361.391052 286.185852,391.213562 224.797150,399.573792 
	C223.490921,399.751678 222.263947,400.511597 221.000000,401.000000 
	C207.312439,401.000000 193.624878,401.000000 179.450836,400.592834 
	C177.359024,399.834717 175.769104,399.370514 174.146057,399.149658 
	C144.500259,395.115021 116.942825,385.205994 92.072525,368.619202 
	C41.499386,334.890381 11.786738,287.752167 2.763043,227.592636 
	C2.623335,226.661224 1.607148,225.861298 0.999999,225.000000 
	C1.000000,209.979111 1.000000,194.958206 1.408040,179.451080 
	C2.116633,177.694778 2.536516,176.439880 2.700089,175.152420 
	C5.856354,150.309814 13.258463,126.751511 25.627344,105.033775 
	C58.771240,46.838490 108.647049,12.748429 174.925751,2.723412 
	C176.338409,2.509741 177.644302,1.590232 179.000000,0.999998 
M130.686920,163.213745 
	C123.418839,192.738373 124.892029,221.907471 133.952652,250.876709 
	C178.719589,250.876709 223.191742,250.876709 267.876068,250.876709 
	C268.309937,249.626190 268.790070,248.407745 269.158478,247.156403 
	C278.088562,216.822510 277.994019,186.458954 269.670654,156.003738 
	C268.631104,152.200119 267.135895,150.858810 262.948853,150.880753 
	C223.626068,151.086731 184.301743,151.003174 144.977875,151.003250 
	C133.364426,151.003281 133.364426,151.003265 130.686920,163.213745 
M92.771866,205.482880 
	C92.168915,187.135223 94.825859,169.142181 99.219391,151.142426 
	C79.874214,151.142426 61.080452,151.142426 41.936535,151.142426 
	C31.871925,184.434998 31.784704,217.580963 41.920876,250.675781 
	C61.191319,250.675781 80.062737,250.675781 98.003563,250.675781 
	C96.248878,235.796951 94.519836,221.135513 92.771866,205.482880 
M304.872437,250.996521 
	C323.167206,250.996521 341.462006,250.996521 359.966888,250.996521 
	C370.089874,217.481216 370.189575,184.349167 359.955902,151.170227 
	C340.746765,151.170227 321.955048,151.170227 303.087189,151.170227 
	C303.087189,151.822754 302.986572,152.329163 303.101562,152.780685 
	C311.188232,184.530899 311.440430,216.291504 303.353088,248.090256 
	C303.137482,248.937958 303.738831,249.993408 304.872437,250.996521 
M247.387833,104.110703 
	C234.465515,81.366936 219.162720,60.411015 200.949768,41.307175 
	C179.382507,64.404305 161.616150,89.343193 147.601212,117.404442 
	C183.612320,117.404442 218.664673,117.404442 254.463058,117.404442 
	C252.076385,112.841957 249.948486,108.774162 247.387833,104.110703 
M187.728012,345.772217 
	C192.075455,350.710358 196.422913,355.648529 200.946320,360.786530 
	C222.611801,337.625824 240.340744,312.629944 254.529633,284.386505 
	C218.720673,284.386505 183.923920,284.385620 149.127167,284.402313 
	C148.855347,284.402435 148.583633,284.641418 147.746735,285.033905 
	C158.651260,306.644318 171.880737,326.631287 187.728012,345.772217 
M127.990631,350.530273 
	C137.220505,354.267120 146.450378,358.003967 156.656601,362.136108 
	C156.080551,360.162140 156.073639,359.781738 155.885681,359.545044 
	C138.210800,337.288055 123.423958,313.287384 111.804665,287.317902 
	C111.137604,285.826996 108.288826,284.508331 106.434219,284.479614 
	C91.441681,284.247681 76.444061,284.338104 61.448017,284.350922 
	C60.212261,284.351990 58.976631,284.506256 57.067272,284.634644 
	C74.474266,313.667480 97.641571,335.399078 127.990631,350.530273 
M146.399094,54.924145 
	C149.417038,50.861042 152.434967,46.797939 155.664734,42.449642 
	C131.605072,39.874100 69.251205,87.927612 57.656467,117.701645 
	C59.439861,117.701645 61.040623,117.703568 62.641376,117.701340 
	C76.957710,117.681404 91.279053,117.444138 105.587242,117.775375 
	C109.752220,117.871803 111.438545,116.191193 112.903954,112.822678 
	C121.757118,92.472000 133.044189,73.510117 146.399094,54.924145 
M251.295227,359.725403 
	C291.641052,346.330017 322.716797,321.498505 345.103607,284.346558 
	C328.377747,284.346558 312.754486,284.518494 297.139587,284.234344 
	C292.854095,284.156311 290.919464,285.598267 288.902222,289.349854 
	C279.873199,306.141785 270.599487,322.814606 260.912598,339.234558 
	C256.633606,346.487823 251.162613,353.037872 245.581207,360.815033 
	C247.906525,360.383362 249.225952,360.138428 251.295227,359.725403 
M273.070160,81.464493 
	C278.610687,92.256790 284.278137,102.987068 289.604767,113.883934 
	C290.977814,116.692856 292.450317,117.753319 295.598267,117.719582 
	C310.425873,117.560661 325.256348,117.675179 340.085785,117.665802 
	C341.482483,117.664925 342.879089,117.480087 344.872833,117.338150 
	C329.456757,91.280472 309.092926,71.201218 283.470306,56.453598 
	C271.859650,49.770836 259.700653,44.404835 246.536224,41.723076 
	C255.393753,54.968433 264.043915,67.903725 273.070160,81.464493 
z"/>
<path fill="#FDFDFD" opacity="1.000000" stroke="none" 
	d="
M401.000000,182.531342 
	C400.338898,181.088455 399.282684,179.218903 399.074463,177.259232 
	C393.668121,126.384003 370.602997,84.667000 332.809357,50.924938 
	C302.455963,23.825520 266.794403,7.861952 226.368958,2.687057 
	C225.243103,2.542934 224.154175,2.110109 223.024017,1.405953 
	C282.261169,1.000000 341.522308,1.000000 401.000000,1.000000 
	C401.000000,61.354053 401.000000,121.708366 401.000000,182.531342 
z"/>
<path fill="#FDFDFD" opacity="1.000000" stroke="none" 
	d="
M221.468658,401.000000 
	C222.263947,400.511597 223.490921,399.751678 224.797150,399.573792 
	C286.185852,391.213562 334.294617,361.391052 368.644897,309.877930 
	C385.307739,284.889679 395.308563,257.200684 399.185913,227.357803 
	C399.375244,225.900604 399.846771,224.480072 400.593445,223.021240 
	C401.000000,282.260773 401.000000,341.521515 401.000000,401.000000 
	C341.312622,401.000000 281.624969,401.000000 221.468658,401.000000 
z"/>
<path fill="#FDFDFD" opacity="1.000000" stroke="none" 
	d="
M178.531342,0.999998 
	C177.644302,1.590232 176.338409,2.509741 174.925751,2.723412 
	C108.647049,12.748429 58.771240,46.838490 25.627344,105.033775 
	C13.258463,126.751511 5.856354,150.309814 2.700089,175.152420 
	C2.536516,176.439880 2.116633,177.694778 1.408040,178.982422 
	C1.000000,119.739647 1.000000,60.479294 1.000000,1.000000 
	C60.020714,1.000000 119.041702,1.000000 178.531342,0.999998 
z"/>
<path fill="#FDFDFD" opacity="1.000000" stroke="none" 
	d="
M0.999999,225.468658 
	C1.607148,225.861298 2.623335,226.661224 2.763043,227.592636 
	C11.786738,287.752167 41.499386,334.890381 92.072525,368.619202 
	C116.942825,385.205994 144.500259,395.115021 174.146057,399.149658 
	C175.769104,399.370514 177.359024,399.834717 178.982178,400.592834 
	C119.740059,401.000000 60.480114,401.000000 1.000000,401.000000 
	C1.000000,342.645966 1.000000,284.291626 0.999999,225.468658 
z"/>
<path fill="#787878" opacity="1.000000" stroke="none" 
	d="
M401.000000,214.625000 
	C400.803314,214.099930 400.606628,213.199875 400.704987,212.149902 
	C401.000000,212.750000 401.000000,213.500000 401.000000,214.625000 
z"/>
<path fill="#FEFEFE" opacity="1.000000" stroke="none" 
	d="
M130.773453,162.809479 
	C133.364426,151.003265 133.364426,151.003281 144.977875,151.003250 
	C184.301743,151.003174 223.626068,151.086731 262.948853,150.880753 
	C267.135895,150.858810 268.631104,152.200119 269.670654,156.003738 
	C277.994019,186.458954 278.088562,216.822510 269.158478,247.156403 
	C268.790070,248.407745 268.309937,249.626190 267.876068,250.876709 
	C223.191742,250.876709 178.719589,250.876709 133.952652,250.876709 
	C124.892029,221.907471 123.418839,192.738373 130.773453,162.809479 
z"/>
<path fill="#FDFDFD" opacity="1.000000" stroke="none" 
	d="
M92.781326,205.978485 
	C94.519836,221.135513 96.248878,235.796951 98.003563,250.675781 
	C80.062737,250.675781 61.191319,250.675781 41.920876,250.675781 
	C31.784704,217.580963 31.871925,184.434998 41.936535,151.142426 
	C61.080452,151.142426 79.874214,151.142426 99.219391,151.142426 
	C94.825859,169.142181 92.168915,187.135223 92.781326,205.978485 
z"/>
<path fill="#FDFDFD" opacity="1.000000" stroke="none" 
	d="
M304.415802,250.974243 
	C303.738831,249.993408 303.137482,248.937958 303.353088,248.090256 
	C311.440430,216.291504 311.188232,184.530899 303.101562,152.780685 
	C302.986572,152.329163 303.087189,151.822754 303.087189,151.170227 
	C321.955048,151.170227 340.746765,151.170227 359.955902,151.170227 
	C370.189575,184.349167 370.089874,217.481216 359.966888,250.996521 
	C341.462006,250.996521 323.167206,250.996521 304.415802,250.974243 
z"/>
<path fill="#FAFAFA" opacity="1.000000" stroke="none" 
	d="
M247.604218,104.408539 
	C249.948486,108.774162 252.076385,112.841957 254.463058,117.404442 
	C218.664673,117.404442 183.612320,117.404442 147.601212,117.404442 
	C161.616150,89.343193 179.382507,64.404305 200.949768,41.307175 
	C219.162720,60.411015 234.465515,81.366936 247.604218,104.408539 
z"/>
<path fill="#FAFAFA" opacity="1.000000" stroke="none" 
	d="
M187.492920,345.503540 
	C171.880737,326.631287 158.651260,306.644318 147.746735,285.033905 
	C148.583633,284.641418 148.855347,284.402435 149.127167,284.402313 
	C183.923920,284.385620 218.720673,284.386505 254.529633,284.386505 
	C240.340744,312.629944 222.611801,337.625824 200.946320,360.786530 
	C196.422913,355.648529 192.075455,350.710358 187.492920,345.503540 
z"/>
<path fill="#F9F9F9" opacity="1.000000" stroke="none" 
	d="
M127.667923,350.339508 
	C97.641571,335.399078 74.474266,313.667480 57.067272,284.634644 
	C58.976631,284.506256 60.212261,284.351990 61.448017,284.350922 
	C76.444061,284.338104 91.441681,284.247681 106.434219,284.479614 
	C108.288826,284.508331 111.137604,285.826996 111.804665,287.317902 
	C123.423958,313.287384 138.210800,337.288055 155.885681,359.545044 
	C156.073639,359.781738 156.080551,360.162140 156.656601,362.136108 
	C146.450378,358.003967 137.220505,354.267120 127.667923,350.339508 
z"/>
<path fill="#FAFAFA" opacity="1.000000" stroke="none" 
	d="
M146.188843,55.215233 
	C133.044189,73.510117 121.757118,92.472000 112.903954,112.822678 
	C111.438545,116.191193 109.752220,117.871803 105.587242,117.775375 
	C91.279053,117.444138 76.957710,117.681404 62.641376,117.701340 
	C61.040623,117.703568 59.439861,117.701645 57.656467,117.701645 
	C69.251205,87.927612 131.605072,39.874100 155.664734,42.449642 
	C152.434967,46.797939 149.417038,50.861042 146.188843,55.215233 
z"/>
<path fill="#F9F9F9" opacity="1.000000" stroke="none" 
	d="
M250.920319,359.809448 
	C249.225952,360.138428 247.906525,360.383362 245.581207,360.815033 
	C251.162613,353.037872 256.633606,346.487823 260.912598,339.234558 
	C270.599487,322.814606 279.873199,306.141785 288.902222,289.349854 
	C290.919464,285.598267 292.854095,284.156311 297.139587,284.234344 
	C312.754486,284.518494 328.377747,284.346558 345.103607,284.346558 
	C322.716797,321.498505 291.641052,346.330017 250.920319,359.809448 
z"/>
<path fill="#FAFAFA" opacity="1.000000" stroke="none" 
	d="
M272.882141,81.151756 
	C264.043915,67.903725 255.393753,54.968433 246.536224,41.723076 
	C259.700653,44.404835 271.859650,49.770836 283.470306,56.453598 
	C309.092926,71.201218 329.456757,91.280472 344.872833,117.338150 
	C342.879089,117.480087 341.482483,117.664925 340.085785,117.665802 
	C325.256348,117.675179 310.425873,117.560661 295.598267,117.719582 
	C292.450317,117.753319 290.977814,116.692856 289.604767,113.883934 
	C284.278137,102.987068 278.610687,92.256790 272.882141,81.151756 
z"/>
</svg>